<svg xmlns="http://www.w3.org/2000/svg" viewBox="0 0 240 60">
  <!-- Oracle Icon -->
  <g transform="translate(0,0)">
    <rect x="5" y="15" width="50" height="30" fill="none" stroke="#0066ff" stroke-width="2" rx="2"/>
    <path d="M15 25h30M15 35h20" stroke="#0066ff" stroke-width="2" stroke-linecap="round"/>
    <circle cx="45" cy="35" r="3" fill="#0066ff"/>
  </g>
  
  <!-- AI Icon -->
  <g transform="translate(60,0)">
    <path d="M15 15 L45 15 L55 30 L45 45 L15 45 L5 30 Z" fill="none" stroke="#0066ff" stroke-width="2"/>
    <circle cx="30" cy="30" r="8" fill="none" stroke="#0066ff" stroke-width="2"/>
    <path d="M25 25l10 10M25 35l10-10" stroke="#0066ff" stroke-width="2"/>
  </g>
  
  <!-- Process Icon -->
  <g transform="translate(120,0)">
    <circle cx="15" cy="30" r="5" fill="none" stroke="#0066ff" stroke-width="2"/>
    <circle cx="45" cy="30" r="5" fill="none" stroke="#0066ff" stroke-width="2"/>
    <path d="M20 30h20M45 25l10 5l-10 5" stroke="#0066ff" stroke-width="2" fill="none"/>
  </g>
  
  <!-- Training Icon -->
  <g transform="translate(180,0)">
    <path d="M15 20h30v20H15z" fill="none" stroke="#0066ff" stroke-width="2"/>
    <path d="M20 25h20M20 30h15M20 35h10" stroke="#0066ff" stroke-width="2" stroke-linecap="round"/>
  </g>
</svg>
